<svg xmlns="http://www.w3.org/2000/svg" version="1.1" xmlns:xlink="http://www.w3.org/1999/xlink" xmlns:svgjs="http://svgjs.com/svgjs" width="1440" height="560" preserveAspectRatio="none" viewBox="0 0 1440 560"><g mask="url(&quot;#SvgjsMask1000&quot;)" fill="none"><rect width="1440" height="560" x="0" y="0" fill="#1e3266"></rect><path d="M1488 560L0 560 L0 326.87Q69.96 276.83, 120 346.79Q155.04 261.83, 240 296.87Q316.96 253.83, 360 330.79Q432.41 283.2, 480 355.6Q513.74 269.34, 600 303.08Q650.53 233.61, 720 284.13Q796.84 240.97, 840 317.8Q926.36 284.16, 960 370.52Q977.34 315.86, 1032 333.2Q1062.81 292, 1104 322.81Q1189 287.81, 1224 372.81Q1224.78 301.59, 1296 302.37Q1325.87 260.24, 1368 290.11Q1459.34 261.45, 1488 352.79z" fill="#182f5d"></path><path d="M1536 560L0 560 L0 400.19Q59 387.19, 72 446.19Q99.61 353.8, 192 381.41Q242.74 312.15, 312 362.9Q396.5 327.39, 432 411.89Q507.94 367.82, 552 443.76Q552.93 372.69, 624 373.62Q678.9 308.52, 744 363.43Q827.91 327.34, 864 411.25Q917.71 344.96, 984 398.66Q1020.79 315.45, 1104 352.24Q1155.78 332.01, 1176 383.79Q1227.65 315.45, 1296 367.1Q1373.48 324.58, 1416 402.06Q1468.83 334.88, 1536 387.71z" fill="#25467d"></path><path d="M1512 560L0 560 L0 452.48Q58.58 439.06, 72 497.65Q100.17 453.81, 144 481.98Q183.08 401.06, 264 440.14Q355.26 411.4, 384 502.66Q397.29 443.95, 456 457.24Q506.45 387.69, 576 438.14Q672.99 415.13, 696 512.11Q706.79 450.9, 768 461.7Q807.21 380.9, 888 420.11Q981.98 394.09, 1008 488.07Q1057.21 417.28, 1128 466.5Q1150.18 416.69, 1200 438.87Q1292.74 411.61, 1320 504.35Q1352.59 416.94, 1440 449.53Q1484.13 421.66, 1512 465.8z" fill="#356cb1"></path><path d="M1536 560L0 560 L0 538.26Q45.11 511.37, 72 556.47Q143.94 508.41, 192 580.35Q202.35 518.7, 264 529.05Q290.49 483.53, 336 510.02Q362.65 464.67, 408 491.32Q464.02 475.34, 480 531.35Q553.24 484.59, 600 557.83Q639.34 477.17, 720 516.52Q770.17 494.69, 792 544.86Q864.16 497.02, 912 569.18Q947.97 485.14, 1032 521.11Q1060.69 477.81, 1104 506.5Q1196.38 478.88, 1224 571.26Q1268.13 495.38, 1344 539.51Q1403.91 527.42, 1416 587.33Q1432.65 483.99, 1536 500.64z" fill="white"></path></g><defs><mask id="SvgjsMask1000"><rect width="1440" height="560" fill="#ffffff"></rect></mask></defs></svg>