<svg xmlns="http://www.w3.org/2000/svg" version="1.1" xmlns:xlink="http://www.w3.org/1999/xlink" xmlns:svgjs="http://svgjs.com/svgjs" width="1440" height="560" preserveAspectRatio="none" viewBox="0 0 1440 560"><g mask="url(&quot;#SvgjsMask1003&quot;)" fill="none"><path d="M375 548L374 953" stroke-width="10" stroke="url(#SvgjsLinearGradient1004)" stroke-linecap="round" class="Down"></path><path d="M442 115L441 -151" stroke-width="10" stroke="url(#SvgjsLinearGradient1004)" stroke-linecap="round" class="Down"></path><path d="M505 84L504 -76" stroke-width="10" stroke="url(#SvgjsLinearGradient1004)" stroke-linecap="round" class="Down"></path><path d="M224 331L223 27" stroke-width="10" stroke="url(#SvgjsLinearGradient1004)" stroke-linecap="round" class="Down"></path><path d="M886 299L885 500" stroke-width="6" stroke="url(#SvgjsLinearGradient1005)" stroke-linecap="round" class="Up"></path><path d="M1178 382L1177 564" stroke-width="6" stroke="url(#SvgjsLinearGradient1005)" stroke-linecap="round" class="Up"></path><path d="M1307 423L1306 684" stroke-width="8" stroke="url(#SvgjsLinearGradient1005)" stroke-linecap="round" class="Up"></path><path d="M409 307L408 564" stroke-width="6" stroke="url(#SvgjsLinearGradient1005)" stroke-linecap="round" class="Up"></path><path d="M640 55L639 -189" stroke-width="6" stroke="url(#SvgjsLinearGradient1005)" stroke-linecap="round" class="Up"></path><path d="M893 380L892 721" stroke-width="8" stroke="url(#SvgjsLinearGradient1004)" stroke-linecap="round" class="Down"></path><path d="M1380 401L1379 574" stroke-width="8" stroke="url(#SvgjsLinearGradient1005)" stroke-linecap="round" class="Up"></path><path d="M782 507L781 847" stroke-width="6" stroke="url(#SvgjsLinearGradient1004)" stroke-linecap="round" class="Down"></path><path d="M1372 168L1371 389" stroke-width="10" stroke="url(#SvgjsLinearGradient1005)" stroke-linecap="round" class="Up"></path><path d="M537 524L536 716" stroke-width="6" stroke="url(#SvgjsLinearGradient1004)" stroke-linecap="round" class="Down"></path><path d="M1126 300L1125 485" stroke-width="8" stroke="url(#SvgjsLinearGradient1004)" stroke-linecap="round" class="Down"></path><path d="M1054 457L1053 255" stroke-width="6" stroke="url(#SvgjsLinearGradient1005)" stroke-linecap="round" class="Up"></path><path d="M1201 387L1200 207" stroke-width="6" stroke="url(#SvgjsLinearGradient1004)" stroke-linecap="round" class="Down"></path><path d="M1199 179L1198 -122" stroke-width="10" stroke="url(#SvgjsLinearGradient1005)" stroke-linecap="round" class="Up"></path><path d="M378 457L377 161" stroke-width="10" stroke="url(#SvgjsLinearGradient1004)" stroke-linecap="round" class="Down"></path><path d="M150 77L149 -323" stroke-width="6" stroke="url(#SvgjsLinearGradient1004)" stroke-linecap="round" class="Down"></path><path d="M849 471L848 170" stroke-width="8" stroke="url(#SvgjsLinearGradient1004)" stroke-linecap="round" class="Down"></path><path d="M590 351L589 65" stroke-width="10" stroke="url(#SvgjsLinearGradient1005)" stroke-linecap="round" class="Up"></path><path d="M238 331L237 584" stroke-width="6" stroke="url(#SvgjsLinearGradient1005)" stroke-linecap="round" class="Up"></path><path d="M741 412L740 661" stroke-width="8" stroke="url(#SvgjsLinearGradient1004)" stroke-linecap="round" class="Down"></path><path d="M1037 49L1036 -295" stroke-width="6" stroke="url(#SvgjsLinearGradient1005)" stroke-linecap="round" class="Up"></path><path d="M1087 418L1086 599" stroke-width="6" stroke="url(#SvgjsLinearGradient1004)" stroke-linecap="round" class="Down"></path><path d="M1339 407L1338 -13" stroke-width="8" stroke="url(#SvgjsLinearGradient1005)" stroke-linecap="round" class="Up"></path><path d="M97 338L96 -74" stroke-width="10" stroke="url(#SvgjsLinearGradient1005)" stroke-linecap="round" class="Up"></path><path d="M975 212L974 394" stroke-width="10" stroke="url(#SvgjsLinearGradient1004)" stroke-linecap="round" class="Down"></path><path d="M657 281L656 -119" stroke-width="6" stroke="url(#SvgjsLinearGradient1004)" stroke-linecap="round" class="Down"></path><path d="M1074 196L1073 544" stroke-width="6" stroke="url(#SvgjsLinearGradient1005)" stroke-linecap="round" class="Up"></path><path d="M168 538L167 768" stroke-width="6" stroke="url(#SvgjsLinearGradient1004)" stroke-linecap="round" class="Down"></path><path d="M48 11L47 -314" stroke-width="8" stroke="url(#SvgjsLinearGradient1005)" stroke-linecap="round" class="Up"></path><path d="M1392 410L1391 718" stroke-width="6" stroke="url(#SvgjsLinearGradient1005)" stroke-linecap="round" class="Up"></path><path d="M770 209L769 -147" stroke-width="8" stroke="url(#SvgjsLinearGradient1004)" stroke-linecap="round" class="Down"></path><path d="M710 389L709 556" stroke-width="8" stroke="url(#SvgjsLinearGradient1005)" stroke-linecap="round" class="Up"></path></g><defs><mask id="SvgjsMask1003"><rect width="1440" height="560" fill="#ffffff"></rect></mask><linearGradient x1="0%" y1="0%" x2="0%" y2="100%" id="SvgjsLinearGradient1004"><stop stop-color="rgba(28, 83, 142, 0)" offset="0"></stop><stop stop-color="#1c538e" offset="1"></stop></linearGradient><linearGradient x1="0%" y1="100%" x2="0%" y2="0%" id="SvgjsLinearGradient1005"><stop stop-color="rgba(28, 83, 142, 0)" offset="0"></stop><stop stop-color="#1c538e" offset="1"></stop></linearGradient></defs></svg>