<svg xmlns="http://www.w3.org/2000/svg" version="1.1" xmlns:xlink="http://www.w3.org/1999/xlink" xmlns:svgjs="http://svgjs.com/svgjs" width="1440" height="560" preserveAspectRatio="none" viewBox="0 0 1440 560"><g mask="url(&quot;#SvgjsMask1017&quot;)" fill="none"><rect width="1440" height="560" x="0" y="0" fill="rgba(255, 255, 255, 1)"></rect><path d="M 0,194 C 57.6,242.8 172.8,427.8 288,438 C 403.2,448.2 460.8,235.4 576,245 C 691.2,254.6 748.8,499.6 864,486 C 979.2,472.4 1036.8,216.8 1152,177 C 1267.2,137.2 1382.4,265 1440,287L1440 560L0 560z" fill="#184a7e"></path><path d="M 0,202 C 96,266.8 288,535.2 480,526 C 672,516.8 768,169.8 960,156 C 1152,142.2 1344,396.8 1440,457L1440 560L0 560z" fill="#2264ab"></path></g><defs><mask id="SvgjsMask1017"><rect width="1440" height="560" fill="#ffffff"></rect></mask></defs></svg>
