<svg xmlns="http://www.w3.org/2000/svg" version="1.1" xmlns:xlink="http://www.w3.org/1999/xlink" xmlns:svgjs="http://svgjs.com/svgjs" width="1440" height="560" preserveAspectRatio="none" viewBox="0 0 1440 560"><g mask="url(&quot;#SvgjsMask1057&quot;)" fill="none"><rect width="1440" height="560" x="0" y="0" fill="rgba(99, 25, 159, 1)"></rect><path d="M 0,165 C 57.6,152.4 172.8,95.8 288,102 C 403.2,108.2 460.8,212.4 576,196 C 691.2,179.6 748.8,21.4 864,20 C 979.2,18.6 1036.8,173.6 1152,189 C 1267.2,204.4 1382.4,115.4 1440,97L1440 560L0 560z" fill="rgba(99, 25, 159, 1)"></path><path d="M 0,375 C 144,387.6 432,442.6 720,438 C 1008,433.4 1296,369.2 1440,352L1440 560L0 560z" fill="rgba(255, 255, 255, 1)"></path></g><defs><mask id="SvgjsMask1057"><rect width="1440" height="560" fill="#ffffff"></rect></mask></defs></svg>