<svg xmlns="http://www.w3.org/2000/svg" version="1.1" xmlns:xlink="http://www.w3.org/1999/xlink" xmlns:svgjs="http://svgjs.com/svgjs" width="1440" height="560" preserveAspectRatio="none" viewBox="0 0 1440 560"><g mask="url(&quot;#SvgjsMask1044&quot;)" fill="none"><rect width="1440" height="560" x="0" y="0" fill="rgba(69, 11, 117, 1)"></rect><path d="M 0,7 C 48,39 144,151 240,167 C 336,183 384,73.4 480,87 C 576,100.6 624,228.6 720,235 C 816,241.4 864,111.2 960,119 C 1056,126.8 1104,270.6 1200,274 C 1296,277.4 1392,163.6 1440,136L1440 560L0 560z" fill="rgba(99, 25, 159, 1)"></path><path d="M 0,552 C 32,500.8 96,315.2 160,296 C 224,276.8 256,432.4 320,456 C 384,479.6 416,397.4 480,414 C 544,430.6 576,549.8 640,539 C 704,528.2 736,377.6 800,360 C 864,342.4 896,439.8 960,451 C 1024,462.2 1056,402.2 1120,416 C 1184,429.8 1216,535.6 1280,520 C 1344,504.4 1408,374.4 1440,338L1440 560L0 560z" fill="rgba(255, 255, 255, 1)"></path></g><defs><mask id="SvgjsMask1044"><rect width="1440" height="560" fill="#ffffff"></rect></mask></defs></svg>