<svg xmlns="http://www.w3.org/2000/svg" version="1.1" xmlns:xlink="http://www.w3.org/1999/xlink" xmlns:svgjs="http://svgjs.com/svgjs" width="1440" height="560" preserveAspectRatio="none" viewBox="0 0 1440 560"><g mask="url(&quot;#SvgjsMask1002&quot;)" fill="none"><rect width="1440" height="560" x="0" y="0" fill="rgba(255, 255, 255, 1)"></rect><path d="M -516.2494405192082,390 C -420.25,363 -228.25,258.4 -36.24944051920819,255 C 155.75,251.6 251.75,407.4 443.7505594807918,373 C 635.75,338.6 731.75,96.8 923.7505594807918,83 C 1115.75,69.2 1300.5,299.6 1403.7505594807917,304 C 1507,308.4 1432.75,144.8 1440,105" stroke="rgba(0, 77, 158, 1)" stroke-width="2"></path><path d="M -780.0697571621258,94 C -684.07,168.6 -492.07,464.6 -300.06975716212577,467 C -108.07,469.4 -12.07,122.8 179.93024283787423,106 C 371.93,89.2 467.93,364.6 659.9302428378742,383 C 851.93,401.4 983.92,217.8 1139.9302428378742,198 C 1295.94,178.2 1379.99,266.8 1440,284" stroke="rgba(0, 77, 158, 1)" stroke-width="2"></path><path d="M -299.2554729239639,67 C -203.26,141.4 -11.26,418.4 180.74452707603606,439 C 372.74,459.6 468.74,192.4 660.7445270760361,170 C 852.74,147.6 948.74,305.4 1140.744527076036,327 C 1332.74,348.6 1560.89,269 1620.744527076036,278 C 1680.6,287 1476.15,353.2 1440,372" stroke="rgba(0, 77, 158, 1)" stroke-width="2"></path><path d="M -484.7315365804626,438 C -388.73,381 -196.73,163 -4.731536580462574,153 C 187.27,143 283.27,387.8 475.2684634195374,388 C 667.27,388.2 763.27,135.2 955.2684634195374,154 C 1147.27,172.8 1338.32,463.6 1435.2684634195375,482 C 1532.21,500.4 1439.05,293.2 1440,246" stroke="rgba(0, 77, 158, 1)" stroke-width="2"></path></g><defs><mask id="SvgjsMask1002"><rect width="1440" height="560" fill="#ffffff"></rect></mask></defs></svg>